name C:/MyDriveSym/Projects/mobilecap/Data\Session20210903_0002\mocap\ForceDataProcessed\walking1_forces.mot
datacolumns 19
datarows 17
range 0.62450000 0.63250000
endheader 
time	R_ground_force_vx	R_ground_force_vy	R_ground_force_vz	R_ground_force_px	R_ground_force_py	R_ground_force_pz	R_ground_torque_x	R_ground_torque_y	R_ground_torque_z	L_ground_force_vx	L_ground_force_vy	L_ground_force_vz	L_ground_force_px	L_ground_force_py	L_ground_force_pz	L_ground_torque_x	L_ground_torque_y	L_ground_torque_z	
          0.62450000	         44.57602100	        120.05829300	          0.11714500	          0.32883800	          0.00600000	         -0.20494000	          0.00000000	          0.07037800	          0.00000000	       -101.24025100	        550.67973600	         22.62321000	          0.87823800	          0.00600000	         -0.32454000	          0.00000000	         -0.05810200	          0.00000000	
          0.62500000	         44.09570100	        118.35907500	          0.16387000	          0.32905200	          0.00600000	         -0.20494000	          0.00000000	          0.06961400	          0.00000000	       -101.34601900	        551.62654400	         22.80042100	          0.87846100	          0.00600000	         -0.32458200	          0.00000000	         -0.06628000	          0.00000000	
          0.62550000	         43.61693900	        116.67126200	          0.20980900	          0.32927000	          0.00600000	         -0.20493900	          0.00000000	          0.06885500	          0.00000000	       -101.44741700	        552.55934000	         22.97674400	          0.87868300	          0.00600000	         -0.32462300	          0.00000000	         -0.07450100	          0.00000000	
          0.62600000	         43.13977900	        114.99490700	          0.25496900	          0.32949000	          0.00600000	         -0.20493900	          0.00000000	          0.06810100	          0.00000000	       -101.54445800	        553.47815500	         23.15215900	          0.87890600	          0.00600000	         -0.32466500	          0.00000000	         -0.08276500	          0.00000000	
          0.62650000	         42.66426500	        113.33006200	          0.29936000	          0.32971400	          0.00600000	         -0.20493800	          0.00000000	          0.06735100	          0.00000000	       -101.63715400	        554.38301800	         23.32664500	          0.87912900	          0.00600000	         -0.32470700	          0.00000000	         -0.09107100	          0.00000000	
          0.62700000	         42.19044000	        111.67677400	          0.34298800	          0.32994000	          0.00600000	         -0.20493700	          0.00000000	          0.06660500	          0.00000000	       -101.72551700	        555.27396200	         23.50018000	          0.87935200	          0.00600000	         -0.32474800	          0.00000000	         -0.09941800	          0.00000000	
          0.62750000	         41.71834500	        110.03509000	          0.38586000	          0.33016900	          0.00600000	         -0.20493600	          0.00000000	          0.06586400	          0.00000000	       -101.80956200	        556.15102000	         23.67274400	          0.87957400	          0.00600000	         -0.32479000	          0.00000000	         -0.10780500	          0.00000000	
          0.62800000	         41.24802100	        108.40505600	          0.42798400	          0.33040100	          0.00600000	         -0.20493500	          0.00000000	          0.06512600	          0.00000000	       -101.88930200	        557.01422400	         23.84431600	          0.87979700	          0.00600000	         -0.32483100	          0.00000000	         -0.11623100	          0.00000000	
          0.62850000	         40.77950900	        106.78671300	          0.46936700	          0.33063700	          0.00600000	         -0.20493400	          0.00000000	          0.06439200	          0.00000000	       -101.96475200	        557.86361100	         24.01487500	          0.88002100	          0.00600000	         -0.32487300	          0.00000000	         -0.12469500	          0.00000000	
          0.62900000	         40.31284700	        105.18010200	          0.51001800	          0.33087600	          0.00600000	         -0.20493200	          0.00000000	          0.06366200	          0.00000000	       -102.03592600	        558.69921500	         24.18440100	          0.88024400	          0.00600000	         -0.32491400	          0.00000000	         -0.13319700	          0.00000000	
          0.62950000	         39.84807600	        103.58526100	          0.54994300	          0.33111900	          0.00600000	         -0.20493100	          0.00000000	          0.06293500	          0.00000000	       -102.10284100	        559.52107300	         24.35287300	          0.88046700	          0.00600000	         -0.32495500	          0.00000000	         -0.14173600	          0.00000000	
          0.63000000	         39.38523300	        102.00222600	          0.58914900	          0.33136500	          0.00600000	         -0.20492900	          0.00000000	          0.06221100	          0.00000000	       -102.16551100	        560.32922400	         24.52027200	          0.88069000	          0.00600000	         -0.32499600	          0.00000000	         -0.15030900	          0.00000000	
          0.63050000	         38.92435600	        100.43103200	          0.62764400	          0.33161500	          0.00600000	         -0.20492800	          0.00000000	          0.06149100	          0.00000000	       -102.22395400	        561.12370500	         24.68657800	          0.88091400	          0.00600000	         -0.32503800	          0.00000000	         -0.15891800	          0.00000000	
          0.63100000	         38.46548100	         98.87170900	          0.66543600	          0.33186800	          0.00600000	         -0.20492600	          0.00000000	          0.06077300	          0.00000000	       -102.27818500	        561.90455500	         24.85177200	          0.88113700	          0.00600000	         -0.32507900	          0.00000000	         -0.16755900	          0.00000000	
          0.63150000	         38.00864300	         97.32428900	          0.70253100	          0.33212600	          0.00600000	         -0.20492300	          0.00000000	          0.06005700	          0.00000000	       -102.32822200	        562.67181500	         25.01583300	          0.88136100	          0.00600000	         -0.32512000	          0.00000000	         -0.17623400	          0.00000000	
          0.63200000	         37.55387800	         95.78879900	          0.73893700	          0.33238700	          0.00600000	         -0.20492100	          0.00000000	          0.05934400	          0.00000000	       -102.37408200	        563.42552600	         25.17874300	          0.88158400	          0.00600000	         -0.32516100	          0.00000000	         -0.18494000	          0.00000000	
          0.63250000	         37.10122000	         94.26526500	          0.77466000	          0.33265300	          0.00600000	         -0.20491900	          0.00000000	          0.05863200	          0.00000000	       -102.41578300	        564.16572900	         25.34048300	          0.88180800	          0.00600000	         -0.32520200	          0.00000000	         -0.19367600	          0.00000000	
